<svg
    xmlns="http://www.w3.org/2000/svg"
    width="273" height="63.46"
    viewBox="0 0 273 63.46"
    role="img"
    aria-labelledby="logo-title">
    <title id="logo-title">Readr</title>
    <style type="text/css">
        path {
            fill: #FFF;
        }
    </style>
    <path d="M39.66,36.75a5.79,5.79,0,0,1,.8-3,6.9,6.9,0,0,1,1.92-2.13,7.75,7.75,0,0,1,2.13-.94,15,15,0,0,1,2.84-.52V26.72L25,25.5l-0.7.7V33H24.09a27.64,27.64,0,0,0-6.87-5.88A14.74,14.74,0,0,0,9.66,25a9.38,9.38,0,0,0-7,2.7,9.51,9.51,0,0,0-2.65,7A9.6,9.6,0,0,0,2.2,40.9,7.14,7.14,0,0,0,8,43.59a9.55,9.55,0,0,0,5.79-1.73,5.9,5.9,0,0,0,2.37-5.09,10.7,10.7,0,0,0-.23-2.54q-0.23-.91-0.42-1.7A10,10,0,0,1,20.06,34a14.92,14.92,0,0,1,4.22,3.72V63.46H39.66V36.75Z"/>
    <path d="M71.72,62.3q-3.7-5-3.7-14.62H99.7v-3A23.79,23.79,0,0,0,98.48,37a16,16,0,0,0-3.89-6.3,19.09,19.09,0,0,0-7-4.41A30.91,30.91,0,0,0,76.83,24.7,27.47,27.47,0,0,0,66,26.77a23.91,23.91,0,0,0-8,5.39,24.65,24.65,0,0,0-6.75,17,29,29,0,0,0,1.62,9.82A21.72,21.72,0,0,0,55,63.46H72.7A11.56,11.56,0,0,1,71.72,62.3ZM70.36,32.16q2.16-3.66,5.77-3.66a5.35,5.35,0,0,1,3.49,1.13A7.43,7.43,0,0,1,81.8,33a19.2,19.2,0,0,1,1,4.83q0.28,3,.28,5.77l-15,.19Q68.2,35.81,70.36,32.16Z"/>
    <path d="M122.63,59.8a11,11,0,0,1,1-4.82,9.11,9.11,0,0,1,2.73-3.36,20.83,20.83,0,0,1,4.23-2.42q2.59-1.15,5.22-2l-0.19,15.93-0.33.38h15.61c0-.31,0-0.63,0-1q0-2.3.21-9.56t0.21-12.56a16.85,16.85,0,0,0-1.71-8.13,11.89,11.89,0,0,0-4.62-4.76,19.71,19.71,0,0,0-6.84-2.23,59.66,59.66,0,0,0-8.34-.54,36.27,36.27,0,0,0-7.12.77,29.18,29.18,0,0,0-6.8,2.18,17.07,17.07,0,0,0-5.09,3.45,6.7,6.7,0,0,0-.06,9.66q2,1.9,6,1.9a12.2,12.2,0,0,0,4.11-.52,8.11,8.11,0,0,0,2.42-1.45,4.43,4.43,0,0,0,1.22-1.9,6.23,6.23,0,0,0,.42-2,11.42,11.42,0,0,0-.66-3.7,18.24,18.24,0,0,1-.8-2.86A11.55,11.55,0,0,1,125.6,29a8.87,8.87,0,0,1,3.45-.59,6.12,6.12,0,0,1,3.7,1A6.19,6.19,0,0,1,134.81,32a10,10,0,0,1,.8,3.23q0.19,1.92.19,3.09v4.5a57.21,57.21,0,0,1-8.64,3Q121.24,47.49,117,49A36.26,36.26,0,0,0,113,50.87a12.46,12.46,0,0,0-3.26,2.49,11.77,11.77,0,0,0-2.39,3.78,14.11,14.11,0,0,0-.85,5.19c0,0.39,0,.76.05,1.13h16.72A9.72,9.72,0,0,1,122.63,59.8Z"/>
    <path d="M182.53,62a18,18,0,0,1-1.89-5.51,39.14,39.14,0,0,1-.54-6.82q0-9.66,3-15t7.67-5.3a8.09,8.09,0,0,1,3.53.75,8.42,8.42,0,0,1,2.5,1.73,9.84,9.84,0,0,1,1.61,2.48,20.84,20.84,0,0,1,.91,2.39V63.23l-0.21.23h15.77a9,9,0,0,1-.09-1.26V0.75L214.08,0,188.72,1.22V4.64a38,38,0,0,1,4.38.63,9.5,9.5,0,0,1,3.63,1.48,5.87,5.87,0,0,1,1.88,2.37,7.68,7.68,0,0,1,.7,3.26V27.7a21.55,21.55,0,0,0-5.38-2,28.86,28.86,0,0,0-7.21-.87,22.26,22.26,0,0,0-16.6,7.08,23.52,23.52,0,0,0-6.86,17,28.47,28.47,0,0,0,3.58,14.62H183.5A12.09,12.09,0,0,1,182.53,62Z"/>
    <path d="M248.72,37.73A14.92,14.92,0,0,1,252.94,34a10,10,0,0,1,4.55-1.49q-0.19.79-.42,1.7a10.7,10.7,0,0,0-.23,2.54,5.9,5.9,0,0,0,2.37,5.09A9.55,9.55,0,0,0,265,43.59a7.14,7.14,0,0,0,5.81-2.7,9.6,9.6,0,0,0,2.2-6.26,9.51,9.51,0,0,0-2.65-7,9.38,9.38,0,0,0-7-2.7,14.74,14.74,0,0,0-7.57,2.13A27.64,27.64,0,0,0,248.91,33h-0.19V26.2l-0.7-.7-22.36,1.22v3.42a15,15,0,0,1,2.84.52,7.75,7.75,0,0,1,2.13.94,6.9,6.9,0,0,1,1.92,2.13,5.79,5.79,0,0,1,.8,3V63.46h15.38V37.73Z"/>
</svg>
